<svg width="1100" height="920" viewBox="0 0 1100 920" fill="none" xmlns="http://www.w3.org/2000/svg">
  <defs>
    <linearGradient id="bg" x1="0" y1="0" x2="1" y2="1">
      <stop stop-color="#101821"/>
      <stop offset="1" stop-color="#0B1118"/>
    </linearGradient>
    <linearGradient id="panel" x1="0" y1="0" x2="0" y2="1">
      <stop stop-color="#17222F"/>
      <stop offset="1" stop-color="#101821"/>
    </linearGradient>
    <linearGradient id="card" x1="0" y1="0" x2="1" y2="1">
      <stop stop-color="#1D2A38"/>
      <stop offset="1" stop-color="#111A24"/>
    </linearGradient>
    <linearGradient id="accent" x1="0" y1="0" x2="1" y2="1">
      <stop stop-color="#4DD3C9"/>
      <stop offset="1" stop-color="#2EA89F"/>
    </linearGradient>
    <filter id="shadow" x="-10%" y="-10%" width="120%" height="120%">
      <feDropShadow dx="0" dy="18" stdDeviation="24" flood-color="#000000" flood-opacity="0.42"/>
    </filter>
  </defs>

  <rect width="1100" height="920" rx="32" fill="url(#bg)"/>
  <rect x="56" y="76" width="988" height="768" rx="26" fill="url(#panel)" stroke="#314253" stroke-opacity="0.8" filter="url(#shadow)"/>
  <rect x="56" y="76" width="988" height="58" rx="26" fill="#1C2834"/>
  <circle cx="94" cy="105" r="8" fill="#E37C65"/>
  <circle cx="120" cy="105" r="8" fill="#F1B16C"/>
  <circle cx="146" cy="105" r="8" fill="#4DD3C9"/>

  <rect x="180" y="92" width="114" height="26" rx="13" fill="#111A24" stroke="#2B3949"/>
  <rect x="306" y="92" width="114" height="26" rx="13" fill="#111A24" stroke="#2B3949"/>
  <rect x="432" y="92" width="98" height="26" rx="13" fill="#111A24" stroke="#2B3949"/>
  <rect x="542" y="92" width="110" height="26" rx="13" fill="#111A24" stroke="#2B3949"/>
  <rect x="664" y="92" width="98" height="26" rx="13" fill="#111A24" stroke="#2B3949"/>
  <rect x="798" y="92" width="180" height="26" rx="13" fill="#111A24" stroke="#2B3949"/>

  <rect x="72" y="160" width="262" height="616" rx="22" fill="#0F1720" stroke="#2D3D4D"/>
  <rect x="72" y="160" width="262" height="52" rx="22" fill="#16212B"/>
  <text x="98" y="193" fill="#A9BBC8" font-family="IBM Plex Sans, sans-serif" font-size="18" font-weight="600">Source package</text>
  <text x="98" y="248" fill="#F1B16C" font-family="IBM Plex Mono, monospace" font-size="18">::mol</text>
  <text x="98" y="282" fill="#EEF6FB" font-family="IBM Plex Mono, monospace" font-size="14">title: Enolate formation</text>
  <text x="98" y="308" fill="#EEF6FB" font-family="IBM Plex Mono, monospace" font-size="14">smiles: O=C1[C-]CCCC1</text>
  <text x="98" y="344" fill="#F1B16C" font-family="IBM Plex Mono, monospace" font-size="16">arrows:</text>
  <text x="98" y="373" fill="#EEF6FB" font-family="IBM Plex Mono, monospace" font-size="14">C2.lp1 -&gt; C1-C2 curve: left</text>
  <text x="98" y="401" fill="#EEF6FB" font-family="IBM Plex Mono, monospace" font-size="14">C1-O1 -&gt; O1 curve: right</text>
  <text x="98" y="438" fill="#F1B16C" font-family="IBM Plex Mono, monospace" font-size="16">caption:</text>
  <text x="98" y="466" fill="#A9BBC8" font-family="IBM Plex Sans, sans-serif" font-size="15">Carbon lone pair forms the new</text>
  <text x="98" y="490" fill="#A9BBC8" font-family="IBM Plex Sans, sans-serif" font-size="15">pi bond to the carbonyl carbon.</text>
  <rect x="92" y="682" width="226" height="56" rx="16" fill="#101A24" stroke="#2D3D4D"/>
  <text x="114" y="715" fill="#EEF6FB" font-family="IBM Plex Sans, sans-serif" font-size="14">23 molecules detected</text>

  <rect x="356" y="160" width="676" height="616" rx="22" fill="#121B25" stroke="#2D3D4D"/>
  <rect x="378" y="182" width="198" height="40" rx="14" fill="#182433" stroke="#2D3D4D"/>
  <rect x="588" y="182" width="154" height="40" rx="14" fill="#101A24" stroke="#2D3D4D"/>
  <rect x="754" y="182" width="154" height="40" rx="14" fill="#101A24" stroke="#2D3D4D"/>
  <rect x="920" y="182" width="90" height="40" rx="14" fill="#101A24" stroke="#2D3D4D"/>
  <text x="404" y="209" fill="#EEF6FB" font-family="IBM Plex Sans, sans-serif" font-size="16" font-weight="600">Enolate Formation</text>
  <text x="615" y="209" fill="#A9BBC8" font-family="IBM Plex Sans, sans-serif" font-size="16">SN2 Mechanism</text>
  <text x="781" y="209" fill="#A9BBC8" font-family="IBM Plex Sans, sans-serif" font-size="16">E2 Elimination</text>
  <text x="953" y="209" fill="#A9BBC8" font-family="IBM Plex Sans, sans-serif" font-size="18" font-weight="700">+</text>

  <rect x="378" y="244" width="206" height="314" rx="18" fill="url(#card)" stroke="#3A4B5C"/>
  <rect x="596" y="244" width="206" height="314" rx="18" fill="url(#card)" stroke="#3A4B5C"/>
  <rect x="814" y="244" width="194" height="314" rx="18" fill="url(#card)" stroke="#3A4B5C"/>
  <text x="400" y="276" fill="#EEF6FB" font-family="IBM Plex Sans, sans-serif" font-size="18" font-weight="600">1. Starting structure</text>
  <text x="618" y="276" fill="#EEF6FB" font-family="IBM Plex Sans, sans-serif" font-size="18" font-weight="600">2. Arrow pushing</text>
  <text x="836" y="276" fill="#EEF6FB" font-family="IBM Plex Sans, sans-serif" font-size="18" font-weight="600">3. Enolate</text>

  <g transform="translate(440 340)">
    <circle cx="50" cy="70" r="16" fill="none" stroke="#EEF6FB" stroke-width="3"/>
    <circle cx="50" cy="18" r="11" fill="none" stroke="#EEF6FB" stroke-width="3"/>
    <line x1="50" y1="28" x2="50" y2="54" stroke="#EEF6FB" stroke-width="3"/>
    <line x1="50" y1="86" x2="50" y2="122" stroke="#EEF6FB" stroke-width="3"/>
    <line x1="50" y1="86" x2="15" y2="126" stroke="#EEF6FB" stroke-width="3"/>
    <line x1="50" y1="86" x2="85" y2="126" stroke="#EEF6FB" stroke-width="3"/>
    <circle cx="72" cy="54" r="5" fill="#4DD3C9"/>
    <circle cx="82" cy="66" r="5" fill="#4DD3C9"/>
    <circle cx="92" cy="78" r="5" fill="#4DD3C9"/>
    <path d="M88 92 C112 70, 112 36, 72 28" stroke="#E37C65" stroke-width="4" stroke-linecap="round" fill="none" marker-end="url(#dotArrow)"/>
  </g>

  <g transform="translate(658 340)">
    <circle cx="50" cy="70" r="16" fill="none" stroke="#EEF6FB" stroke-width="3"/>
    <circle cx="50" cy="18" r="11" fill="none" stroke="#EEF6FB" stroke-width="3"/>
    <line x1="50" y1="28" x2="50" y2="54" stroke="#EEF6FB" stroke-width="3"/>
    <line x1="50" y1="86" x2="15" y2="126" stroke="#EEF6FB" stroke-width="3"/>
    <line x1="50" y1="86" x2="85" y2="126" stroke="#EEF6FB" stroke-width="3"/>
    <line x1="50" y1="70" x2="88" y2="78" stroke="#4DD3C9" stroke-width="3"/>
    <line x1="50" y1="70" x2="92" y2="44" stroke="#4DD3C9" stroke-width="3"/>
    <path d="M28 24 C-12 58, -6 114, 42 120" stroke="#4DD3C9" stroke-width="4" stroke-linecap="round" fill="none"/>
    <path d="M96 86 C120 64, 126 30, 92 20" stroke="#E37C65" stroke-width="4" stroke-linecap="round" fill="none"/>
  </g>

  <g transform="translate(860 340)">
    <circle cx="46" cy="72" r="16" fill="none" stroke="#EEF6FB" stroke-width="3"/>
    <circle cx="46" cy="20" r="11" fill="none" stroke="#EEF6FB" stroke-width="3"/>
    <line x1="46" y1="30" x2="46" y2="56" stroke="#EEF6FB" stroke-width="3"/>
    <line x1="46" y1="86" x2="12" y2="124" stroke="#EEF6FB" stroke-width="3"/>
    <line x1="46" y1="86" x2="82" y2="124" stroke="#EEF6FB" stroke-width="3"/>
    <line x1="46" y1="72" x2="92" y2="72" stroke="#E37C65" stroke-width="3"/>
    <circle cx="83" cy="20" r="14" fill="none" stroke="#A9BBC8" stroke-width="3"/>
    <path d="M70 70 h-28" stroke="#4DD3C9" stroke-width="4" stroke-linecap="round"/>
  </g>

  <rect x="378" y="576" width="322" height="176" rx="18" fill="#111A24" stroke="#2D3D4D"/>
  <rect x="712" y="576" width="296" height="176" rx="18" fill="#111A24" stroke="#2D3D4D"/>
  <text x="400" y="608" fill="#EEF6FB" font-family="IBM Plex Sans, sans-serif" font-size="18" font-weight="600">Functional groups</text>
  <text x="734" y="608" fill="#EEF6FB" font-family="IBM Plex Sans, sans-serif" font-size="18" font-weight="600">Notes</text>
  <text x="416" y="676" fill="#F1B16C" font-family="IBM Plex Sans, sans-serif" font-size="54" font-weight="700">O</text>
  <text x="522" y="676" fill="#4DD3C9" font-family="IBM Plex Sans, sans-serif" font-size="54" font-weight="700">C=C</text>
  <text x="422" y="710" fill="#A9BBC8" font-family="IBM Plex Sans, sans-serif" font-size="16">Ketone</text>
  <text x="528" y="710" fill="#A9BBC8" font-family="IBM Plex Sans, sans-serif" font-size="16">Alkene</text>
  <circle cx="824" cy="658" r="4" fill="#A9BBC8"/>
  <circle cx="824" cy="690" r="4" fill="#A9BBC8"/>
  <circle cx="824" cy="722" r="4" fill="#A9BBC8"/>
  <text x="840" y="664" fill="#A9BBC8" font-family="IBM Plex Sans, sans-serif" font-size="16">Render the molecule cards exactly as written.</text>
  <text x="840" y="696" fill="#A9BBC8" font-family="IBM Plex Sans, sans-serif" font-size="16">Highlight the chemistry that matters.</text>
  <text x="840" y="728" fill="#A9BBC8" font-family="IBM Plex Sans, sans-serif" font-size="16">Keep clipboard import immediate on desktop.</text>

  <defs>
    <marker id="dotArrow" markerWidth="8" markerHeight="8" refX="4" refY="4" orient="auto">
      <path d="M0 0 L8 4 L0 8 z" fill="#E37C65"/>
    </marker>
  </defs>
</svg>
